<?xml version="1.0" standalone="no"?>
<!DOCTYPE svg PUBLIC "-//W3C//DTD SVG 20010904//EN"
 "http://www.w3.org/TR/2001/REC-SVG-20010904/DTD/svg10.dtd">
<svg version="1.0" xmlns="http://www.w3.org/2000/svg"
 width="500.000000pt" height="500.000000pt" viewBox="0 0 500.000000 500.000000"
 preserveAspectRatio="xMidYMid meet">
<metadata>
Created by potrace 1.14, written by Peter Selinger 2001-2017
</metadata>
<g transform="translate(0.000000,500.000000) scale(0.100000,-0.100000)"
fill="#000000" stroke="none">
<path d="M3325 4296 c-16 -7 -50 -22 -75 -34 -84 -38 -321 -133 -428 -172
-119 -42 -554 -217 -679 -271 -24 -11 -45 -19 -48 -19 -6 0 -56 -22 -140 -60
-29 -13 -45 -15 -58 -8 -30 16 -66 1 -74 -30 -13 -53 -1 -589 21 -897 3 -49 9
-128 12 -175 3 -47 7 -110 9 -140 3 -30 7 -93 10 -140 10 -151 25 -334 30
-370 2 -14 7 -54 10 -90 4 -36 8 -76 10 -90 9 -70 17 -117 21 -132 4 -14 -1
-18 -23 -19 -158 -7 -368 -58 -483 -120 -239 -127 -313 -367 -172 -554 173
-229 577 -188 829 84 76 82 122 190 118 277 -2 23 -14 66 -27 95 -19 41 -23
61 -16 84 4 17 6 48 3 70 -14 115 -46 373 -50 395 -2 14 -6 44 -10 68 -4 23
-8 52 -9 65 -5 40 -18 131 -22 152 -6 30 -15 97 -29 210 -3 33 -8 71 -11 85
-2 13 -8 70 -14 125 -6 55 -13 116 -15 135 -2 19 -7 69 -11 110 -3 41 -8 77
-10 79 -7 8 17 41 30 41 8 0 65 24 127 54 171 80 593 247 774 306 88 29 199
65 246 80 l86 28 -3 -72 c-1 -39 -3 -173 -3 -298 -1 -207 -3 -227 -18 -232
-10 -2 -58 -7 -108 -11 -49 -3 -97 -8 -105 -10 -8 -2 -33 -6 -55 -10 -95 -14
-170 -38 -281 -91 -174 -84 -331 -293 -359 -479 -30 -198 39 -382 205 -545 76
-75 239 -180 280 -180 14 0 7 -29 -23 -89 -26 -53 -60 -79 -109 -87 -33 -6
-40 -3 -75 34 -53 57 -84 59 -131 11 -22 -22 -30 -39 -27 -58 1 -14 3 -31 4
-37 2 -20 56 -71 104 -99 109 -63 224 -39 328 69 44 44 93 117 105 156 13 40
17 50 23 50 156 6 203 17 306 75 98 54 191 173 230 293 41 128 17 307 -57 414
-11 16 -18 40 -16 55 l3 28 25 -29 c14 -16 30 -34 37 -41 25 -26 71 -123 86
-180 18 -72 15 -211 -6 -271 -21 -57 -55 -123 -84 -161 -13 -18 -20 -33 -15
-33 20 0 118 108 146 160 105 194 43 450 -136 566 l-58 36 0 153 0 152 83 27
c158 53 228 94 315 185 159 166 247 385 194 481 -34 63 -82 84 -152 67 -22 -5
-162 -76 -180 -92 -8 -7 -20 -14 -27 -16 -6 -2 -41 -29 -76 -59 -56 -48 -80
-75 -148 -163 -15 -20 -16 18 -14 503 2 311 -1 538 -6 557 -7 21 -21 36 -43
47 -40 19 -52 19 -91 2z m-58 -348 c-4 -79 -6 -163 -7 -188 l0 -45 -58 -1
c-34 -1 -89 -12 -136 -28 -69 -24 -424 -161 -481 -186 -11 -5 -46 -20 -78 -34
-32 -14 -60 -26 -63 -26 -19 0 -338 -156 -398 -194 -31 -20 -61 -34 -65 -32
-5 3 -11 47 -15 98 -4 51 -9 107 -11 123 -2 17 -7 66 -10 110 -4 44 -9 83 -11
86 -2 4 24 14 59 24 34 10 143 44 242 77 99 32 187 61 195 63 27 7 191 65 385
135 149 54 433 154 454 159 1 1 1 -63 -2 -141z m671 -635 c-39 -144 -186 -287
-358 -348 -47 -17 -58 -15 -38 6 7 8 29 41 48 73 59 100 241 264 325 294 17 6
31 11 32 11 1 1 -3 -16 -9 -36z m-747 -701 c-15 -40 -30 -74 -33 -77 -3 -3
-45 -7 -94 -9 -133 -5 -230 -44 -328 -135 -46 -43 -48 -44 -31 -14 64 110 254
237 415 278 3 1 12 4 20 8 26 10 75 24 77 23 1 -1 -10 -34 -26 -74z m95 -584
c-9 -24 -26 -54 -37 -68 -23 -29 -23 -27 16 57 33 69 47 77 21 11z m-1768
-982 c16 -18 16 -18 -5 -7 -27 14 -43 41 -43 73 1 19 3 17 16 -12 8 -19 23
-43 32 -54z"/>
<path d="M2858 3044 c-3 -2 -36 -6 -74 -8 -119 -6 -210 -36 -308 -101 -125
-83 -224 -212 -277 -361 -24 -68 -33 -217 -17 -286 15 -64 16 -72 17 -84 1 -5
7 -18 14 -27 10 -14 12 -4 14 62 4 158 74 347 173 467 139 168 330 261 555
270 61 2 117 4 125 5 13 0 -16 16 -45 25 -66 19 -124 32 -129 27 -2 -3 -13 0
-24 6 -11 6 -22 8 -24 5z"/>
</g>
</svg>
